{
	"asset":{
		"generator":"Khronos glTF Blender I/O v3.5.30",
		"version":"2.0"
	},
	"scene":0,
	"scenes":[
		{
			"name":"Scene",
			"nodes":[
				0
			]
		}
	],
	"nodes":[
		{
			"mesh":0,
			"name":"kostka.001",
			"rotation":[
				0.46182748675346375,
				0.19506821036338806,
				-0.1919795572757721,
				0.8436869382858276
			],
			"translation":[
				-1.952592134475708,
				4.562839984893799,
				1.926458477973938
			]
		}
	],
	"materials":[
		{
			"doubleSided":true,
			"name":"Material",
			"pbrMetallicRoughness":{
				"baseColorFactor":[
					0.004895562771707773,
					0.004895562771707773,
					0.004895562771707773,
					1
				],
				"metallicFactor":0,
				"roughnessFactor":0.5
			}
		},
		{
			"doubleSided":true,
			"name":"czerwony",
			"pbrMetallicRoughness":{
				"baseColorFactor":[
					0.8000000715255737,
					0.007649767678231001,
					0,
					1
				],
				"metallicFactor":0,
				"roughnessFactor":0.5
			}
		},
		{
			"doubleSided":true,
			"name":"bialy",
			"pbrMetallicRoughness":{
				"baseColorFactor":[
					1,
					1,
					1,
					1
				],
				"metallicFactor":0,
				"roughnessFactor":0.5
			}
		},
		{
			"doubleSided":true,
			"name":"bialy.logo",
			"pbrMetallicRoughness":{
				"baseColorFactor":[
					1,
					1,
					1,
					1
				],
				"metallicFactor":0,
				"roughnessFactor":0.5
			}
		},
		{
			"doubleSided":true,
			"name":"zielony",
			"pbrMetallicRoughness":{
				"baseColorFactor":[
					0.014797741547226906,
					0.8000000715255737,
					0,
					1
				],
				"metallicFactor":0,
				"roughnessFactor":0.5
			}
		},
		{
			"doubleSided":true,
			"name":"niebieski",
			"pbrMetallicRoughness":{
				"baseColorFactor":[
					0,
					0.12619267404079437,
					0.8000000715255737,
					1
				],
				"metallicFactor":0,
				"roughnessFactor":0.5
			}
		},
		{
			"doubleSided":true,
			"name":"zolty",
			"pbrMetallicRoughness":{
				"baseColorFactor":[
					0.8000000715255737,
					0.7042104005813599,
					0,
					1
				],
				"metallicFactor":0,
				"roughnessFactor":0.5
			}
		},
		{
			"doubleSided":true,
			"name":"pomaranczowy",
			"pbrMetallicRoughness":{
				"baseColorFactor":[
					1,
					0.3461112678050995,
					0,
					1
				],
				"metallicFactor":0,
				"roughnessFactor":0.5
			}
		}
	],
	"meshes":[
		{
			"name":"Cube.007",
			"primitives":[
				{
					"attributes":{
						"POSITION":0,
						"TEXCOORD_0":1,
						"NORMAL":2
					},
					"indices":3,
					"material":0
				},
				{
					"attributes":{
						"POSITION":4,
						"TEXCOORD_0":5,
						"NORMAL":6
					},
					"indices":7,
					"material":1
				},
				{
					"attributes":{
						"POSITION":8,
						"TEXCOORD_0":9,
						"NORMAL":10
					},
					"indices":11,
					"material":2
				},
				{
					"attributes":{
						"POSITION":12,
						"TEXCOORD_0":13,
						"NORMAL":14
					},
					"indices":15,
					"material":3
				},
				{
					"attributes":{
						"POSITION":16,
						"TEXCOORD_0":17,
						"NORMAL":18
					},
					"indices":19,
					"material":4
				},
				{
					"attributes":{
						"POSITION":20,
						"TEXCOORD_0":21,
						"NORMAL":22
					},
					"indices":23,
					"material":5
				},
				{
					"attributes":{
						"POSITION":24,
						"TEXCOORD_0":25,
						"NORMAL":26
					},
					"indices":27,
					"material":6
				},
				{
					"attributes":{
						"POSITION":28,
						"TEXCOORD_0":29,
						"NORMAL":30
					},
					"indices":31,
					"material":7
				}
			]
		}
	],
	"accessors":[
		{
			"bufferView":0,
			"componentType":5126,
			"count":20952,
			"max":[
				6.484454154968262,
				7.088629722595215,
				2.4562911987304688
			],
			"min":[
				-2.456350564956665,
				-3.060468912124634,
				-6.484514236450195
			],
			"type":"VEC3"
		},
		{
			"bufferView":1,
			"componentType":5126,
			"count":20952,
			"type":"VEC2"
		},
		{
			"bufferView":2,
			"componentType":5126,
			"count":20952,
			"type":"VEC3"
		},
		{
			"bufferView":3,
			"componentType":5123,
			"count":31428,
			"type":"SCALAR"
		},
		{
			"bufferView":4,
			"componentType":5126,
			"count":875,
			"max":[
				6.431009292602539,
				6.947713851928711,
				2.273653984069824
			],
			"min":[
				-0.716392993927002,
				-1.9317452907562256,
				-6.012895584106445
			],
			"type":"VEC3"
		},
		{
			"bufferView":5,
			"componentType":5126,
			"count":875,
			"type":"VEC2"
		},
		{
			"bufferView":6,
			"componentType":5126,
			"count":875,
			"type":"VEC3"
		},
		{
			"bufferView":7,
			"componentType":5123,
			"count":1458,
			"type":"SCALAR"
		},
		{
			"bufferView":8,
			"componentType":5126,
			"count":859,
			"max":[
				6.0092878341674805,
				6.950960159301758,
				0.7173852920532227
			],
			"min":[
				-2.2708828449249268,
				-1.9348762035369873,
				-6.431887149810791
			],
			"type":"VEC3"
		},
		{
			"bufferView":9,
			"componentType":5126,
			"count":859,
			"type":"VEC2"
		},
		{
			"bufferView":10,
			"componentType":5126,
			"count":859,
			"type":"VEC3"
		},
		{
			"bufferView":11,
			"componentType":5123,
			"count":1452,
			"type":"SCALAR"
		},
		{
			"bufferView":12,
			"componentType":5126,
			"count":4,
			"max":[
				2.65002179145813,
				4.483626842498779,
				-4.077715873718262
			],
			"min":[
				0.49344348907470703,
				2.563708782196045,
				-5.1043500900268555
			],
			"type":"VEC3"
		},
		{
			"bufferView":13,
			"componentType":5126,
			"count":4,
			"type":"VEC2"
		},
		{
			"bufferView":14,
			"componentType":5126,
			"count":4,
			"type":"VEC3"
		},
		{
			"bufferView":15,
			"componentType":5123,
			"count":6,
			"type":"SCALAR"
		},
		{
			"bufferView":16,
			"componentType":5126,
			"count":772,
			"max":[
				6.373777389526367,
				5.5872907638549805,
				1.35868239402771
			],
			"min":[
				-1.3580679893493652,
				-2.9561870098114014,
				-6.375031471252441
			],
			"type":"VEC3"
		},
		{
			"bufferView":17,
			"componentType":5126,
			"count":772,
			"type":"VEC2"
		},
		{
			"bufferView":18,
			"componentType":5126,
			"count":772,
			"type":"VEC3"
		},
		{
			"bufferView":19,
			"componentType":5123,
			"count":1458,
			"type":"SCALAR"
		},
		{
			"bufferView":20,
			"componentType":5126,
			"count":841,
			"max":[
				6.298867225646973,
				5.963233470916748,
				2.4038209915161133
			],
			"min":[
				-1.9813036918640137,
				-2.9226033687591553,
				-4.745450496673584
			],
			"type":"VEC3"
		},
		{
			"bufferView":21,
			"componentType":5126,
			"count":841,
			"type":"VEC2"
		},
		{
			"bufferView":22,
			"componentType":5126,
			"count":841,
			"type":"VEC3"
		},
		{
			"bufferView":23,
			"componentType":5123,
			"count":1458,
			"type":"SCALAR"
		},
		{
			"bufferView":24,
			"componentType":5126,
			"count":772,
			"max":[
				5.386150360107422,
				6.9844865798950195,
				2.346590995788574
			],
			"min":[
				-2.345695734024048,
				-1.5589916706085205,
				-5.3871235847473145
			],
			"type":"VEC3"
		},
		{
			"bufferView":25,
			"componentType":5126,
			"count":772,
			"type":"VEC2"
		},
		{
			"bufferView":26,
			"componentType":5126,
			"count":772,
			"type":"VEC3"
		},
		{
			"bufferView":27,
			"componentType":5123,
			"count":1458,
			"type":"SCALAR"
		},
		{
			"bufferView":28,
			"componentType":5126,
			"count":862,
			"max":[
				4.744475841522217,
				5.960044860839844,
				1.9844539165496826
			],
			"min":[
				-2.402928590774536,
				-2.9194142818450928,
				-6.302094459533691
			],
			"type":"VEC3"
		},
		{
			"bufferView":29,
			"componentType":5126,
			"count":862,
			"type":"VEC2"
		},
		{
			"bufferView":30,
			"componentType":5126,
			"count":862,
			"type":"VEC3"
		},
		{
			"bufferView":31,
			"componentType":5123,
			"count":1458,
			"type":"SCALAR"
		}
	],
	"bufferViews":[
		{
			"buffer":0,
			"byteLength":251424,
			"byteOffset":0,
			"target":34962
		},
		{
			"buffer":0,
			"byteLength":167616,
			"byteOffset":251424,
			"target":34962
		},
		{
			"buffer":0,
			"byteLength":251424,
			"byteOffset":419040,
			"target":34962
		},
		{
			"buffer":0,
			"byteLength":62856,
			"byteOffset":670464,
			"target":34963
		},
		{
			"buffer":0,
			"byteLength":10500,
			"byteOffset":733320,
			"target":34962
		},
		{
			"buffer":0,
			"byteLength":7000,
			"byteOffset":743820,
			"target":34962
		},
		{
			"buffer":0,
			"byteLength":10500,
			"byteOffset":750820,
			"target":34962
		},
		{
			"buffer":0,
			"byteLength":2916,
			"byteOffset":761320,
			"target":34963
		},
		{
			"buffer":0,
			"byteLength":10308,
			"byteOffset":764236,
			"target":34962
		},
		{
			"buffer":0,
			"byteLength":6872,
			"byteOffset":774544,
			"target":34962
		},
		{
			"buffer":0,
			"byteLength":10308,
			"byteOffset":781416,
			"target":34962
		},
		{
			"buffer":0,
			"byteLength":2904,
			"byteOffset":791724,
			"target":34963
		},
		{
			"buffer":0,
			"byteLength":48,
			"byteOffset":794628,
			"target":34962
		},
		{
			"buffer":0,
			"byteLength":32,
			"byteOffset":794676,
			"target":34962
		},
		{
			"buffer":0,
			"byteLength":48,
			"byteOffset":794708,
			"target":34962
		},
		{
			"buffer":0,
			"byteLength":12,
			"byteOffset":794756,
			"target":34963
		},
		{
			"buffer":0,
			"byteLength":9264,
			"byteOffset":794768,
			"target":34962
		},
		{
			"buffer":0,
			"byteLength":6176,
			"byteOffset":804032,
			"target":34962
		},
		{
			"buffer":0,
			"byteLength":9264,
			"byteOffset":810208,
			"target":34962
		},
		{
			"buffer":0,
			"byteLength":2916,
			"byteOffset":819472,
			"target":34963
		},
		{
			"buffer":0,
			"byteLength":10092,
			"byteOffset":822388,
			"target":34962
		},
		{
			"buffer":0,
			"byteLength":6728,
			"byteOffset":832480,
			"target":34962
		},
		{
			"buffer":0,
			"byteLength":10092,
			"byteOffset":839208,
			"target":34962
		},
		{
			"buffer":0,
			"byteLength":2916,
			"byteOffset":849300,
			"target":34963
		},
		{
			"buffer":0,
			"byteLength":9264,
			"byteOffset":852216,
			"target":34962
		},
		{
			"buffer":0,
			"byteLength":6176,
			"byteOffset":861480,
			"target":34962
		},
		{
			"buffer":0,
			"byteLength":9264,
			"byteOffset":867656,
			"target":34962
		},
		{
			"buffer":0,
			"byteLength":2916,
			"byteOffset":876920,
			"target":34963
		},
		{
			"buffer":0,
			"byteLength":10344,
			"byteOffset":879836,
			"target":34962
		},
		{
			"buffer":0,
			"byteLength":6896,
			"byteOffset":890180,
			"target":34962
		},
		{
			"buffer":0,
			"byteLength":10344,
			"byteOffset":897076,
			"target":34962
		},
		{
			"buffer":0,
			"byteLength":2916,
			"byteOffset":907420,
			"target":34963
		}
	],
	"buffers":[
		{
			"byteLength":910336,
			"uri":"rubic.bin"
		}
	]
}
